<svg viewBox="0 0 96 96" xmlns="http://www.w3.org/2000/svg" xmlns:xlink="http://www.w3.org/1999/xlink" id="Icons_Stopwatch7" overflow="hidden"><path d="M47.9 81C32.4 81 19.9 68.5 19.9 53 19.9 37.5 32.4 25 47.9 25 63.4 25 75.9 37.5 75.9 53L75.9 53C75.9 68.5 63.4 81 47.9 81ZM71.6 28.6 74.6 25.6C75.7 24.4 75.7 22.5 74.5 21.4 73.3 20.3 71.5 20.2 70.3 21.3L66.9 24.8C62.1 21.6 56.6 19.6 50.9 19.2L50.9 15 59.9 15 59.9 9 35.9 9 35.9 15 44.9 15 44.9 19.1C26.1 20.7 12.3 37.3 13.9 56 15.5 74.7 32.1 88.6 50.8 87 69.5 85.4 83.4 68.8 81.8 50.1 81.1 41.9 77.5 34.3 71.6 28.6Z" fill="#6A3365"/><path d="M64.9 36C60.9 32 55.6 29.5 49.9 29.1L49.9 53 45.9 53 45.9 29.1C32.7 30.2 22.9 41.8 24 55 25.1 68.2 36.7 78 49.9 77 63.1 76 72.9 64.3 71.8 51.1 71.4 45.4 68.9 40.1 64.9 36Z" fill="#6A3365"/></svg>